<svg fill="#000" xmlns="http://www.w3.org/2000/svg"  viewBox="0 0 48 48" width="144px" height="144px"><path d="M 24 5.0039062 C 23.271883 5.0039062 22.544298 5.140263 21.855469 5.4140625 A 1.50015 1.50015 0 0 0 21.853516 5.4140625 L 7.5371094 11.111328 A 1.50015 1.50015 0 0 0 7.5351562 11.111328 C 6.4483383 11.544399 6 12.610833 6 13.5 C 6 14.389167 6.4483415 15.455601 7.5351562 15.888672 A 1.50015 1.50015 0 0 0 7.5371094 15.888672 L 21.853516 21.585938 A 1.50015 1.50015 0 0 0 21.855469 21.585938 C 23.232818 22.133413 24.767182 22.133413 26.144531 21.585938 L 40.462891 15.888672 C 41.549705 15.455601 41.998047 14.389167 41.998047 13.5 C 41.998047 12.610833 41.549705 11.544399 40.462891 11.111328 L 26.146484 5.4140625 A 1.50015 1.50015 0 0 0 26.144531 5.4140625 C 25.455749 5.140263 24.728117 5.0039062 24 5.0039062 z M 24 7.9960938 C 24.345969 7.9960938 24.691938 8.0639713 25.037109 8.2011719 L 38.351562 13.5 L 25.035156 18.798828 C 24.344505 19.073352 23.653541 19.073352 22.962891 18.798828 L 9.6484375 13.5 L 22.962891 8.2011719 C 23.308062 8.0639713 23.654031 7.9960938 24 7.9960938 z M 36.277344 19.705078 L 32.302734 21.287109 L 38.740234 24 L 24.980469 29.798828 C 24.662469 29.932828 24.332 30 24 30 C 23.668 30 23.338531 29.932828 23.019531 29.798828 L 9.2597656 24 L 15.697266 21.287109 L 11.722656 19.707031 L 7.5371094 21.470703 C 6.6041094 21.863703 6 22.856 6 24 C 6 25.144 6.6041094 26.136297 7.5371094 26.529297 L 21.855469 32.5625 C 22.546469 32.8535 23.273 33 24 33 C 24.727 33 25.452531 32.8545 26.144531 32.5625 L 40.462891 26.529297 C 41.395891 26.137297 42 25.144 42 24 C 42 22.856 41.395891 21.863703 40.462891 21.470703 L 36.277344 19.705078 z M 11.701172 30.453125 L 7.5351562 32.111328 C 6.6031562 32.482328 6 33.42 6 34.5 C 6 35.58 6.6041094 36.517672 7.5371094 36.888672 L 21.855469 42.585938 C 22.546469 42.860937 23.274953 42.998047 24.001953 42.998047 C 24.728953 42.998047 25.454484 42.860938 26.146484 42.585938 L 40.464844 36.888672 C 41.396844 36.517672 42 35.58 42 34.5 C 42 33.42 41.395891 32.482328 40.462891 32.111328 L 36.298828 30.453125 L 32.357422 32.115234 L 38.351562 34.5 L 25.035156 39.798828 C 24.357156 40.068828 23.641844 40.068828 22.964844 39.798828 L 9.6484375 34.5 L 15.642578 32.115234 L 11.701172 30.453125 z"/></svg>